<?xml version="1.0" encoding="UTF-8" standalone="no"?>
<!-- Created with Inkscape (http://www.inkscape.org/) -->
<svg
   xmlns:dc="http://purl.org/dc/elements/1.1/"
   xmlns:cc="http://creativecommons.org/ns#"
   xmlns:rdf="http://www.w3.org/1999/02/22-rdf-syntax-ns#"
   xmlns:svg="http://www.w3.org/2000/svg"
   xmlns="http://www.w3.org/2000/svg"
   xmlns:sodipodi="http://sodipodi.sourceforge.net/DTD/sodipodi-0.dtd"
   xmlns:inkscape="http://www.inkscape.org/namespaces/inkscape"
   version="1.0"
   width="270"
   height="156"
   id="svg5912"
   sodipodi:version="0.32"
   inkscape:version="0.46"
   sodipodi:docname="Golden_ratio_line.svg"
   inkscape:output_extension="org.inkscape.output.svg.inkscape">
  <metadata
     id="metadata2471">
    <rdf:RDF>
      <cc:Work
         rdf:about="">
        <dc:format>image/svg+xml</dc:format>
        <dc:type
           rdf:resource="http://purl.org/dc/dcmitype/StillImage" />
      </cc:Work>
    </rdf:RDF>
  </metadata>
  <sodipodi:namedview
     inkscape:window-height="480"
     inkscape:window-width="640"
     inkscape:pageshadow="2"
     inkscape:pageopacity="0.0"
     guidetolerance="10.0"
     gridtolerance="10.0"
     objecttolerance="10.0"
     borderopacity="1.0"
     bordercolor="#666666"
     pagecolor="#ffffff"
     id="base"
     showgrid="false"
     showguides="true"
     inkscape:guide-bbox="true" />
  <defs
     id="defs5914">
    <inkscape:perspective
       sodipodi:type="inkscape:persp3d"
       inkscape:vp_x="0 : 78 : 1"
       inkscape:vp_y="0 : 1000 : 0"
       inkscape:vp_z="270 : 78 : 1"
       inkscape:persp3d-origin="135 : 52 : 1"
       id="perspective2473" />
  </defs>
  <text
     xml:space="preserve"
     id="text5930"
     style="font-size:28px;font-style:normal;text-align:center;text-anchor:middle;fill:#000000;fill-opacity:1;stroke:none;stroke-width:1px;stroke-linecap:butt;stroke-linejoin:miter;stroke-opacity:1;font-family:Gill Sans MT"
     y="56.246025"
     x="64.16301"><tspan
       id="tspan5932"
       y="56.246025"
       x="64.16301" /></text>
  <path
     id="path5937"
     style="fill:#007e00;fill-opacity:1;fill-rule:evenodd;stroke:none;stroke-width:1px;stroke-linecap:butt;stroke-linejoin:miter;stroke-opacity:0"
     d="M 16.73729,55.43725 C 17.27159,66.24427 27.86467,74.56607 51.23729,74.31225 L 107.89354,74.31225 C 128.96234,74.31225 132.53684,82.15393 135.20604,88.06225 C 137.87524,82.15393 141.44974,74.31225 162.51854,74.31225 L 219.17479,74.31225 C 242.54741,74.56607 253.14049,66.24427 253.67479,55.43725 C 249.82774,62.79986 245.16413,71.43725 223.89354,71.43725 L 160.26854,71.43725 C 143.37145,71.43726 137.58715,78.09607 135.20604,81.0935 C 132.82493,78.09607 127.04063,71.43726 110.14354,71.43725 L 46.51854,71.43725 C 25.24795,71.43725 20.58435,62.79986 16.73729,55.43725 z" />
  <path
     id="rect5942"
     style="fill:#0000ff;fill-opacity:1;stroke:none;stroke-width:2.5;stroke-linecap:square;stroke-linejoin:miter;stroke-miterlimit:4;stroke-dasharray:none;stroke-dashoffset:0;stroke-opacity:1"
     d="M 16.21875,39.5 L 15.34375,40.40625 L 11.375,44.375 L 10.5,45.25 L 11.375,46.15625 L 15.34375,50.125 L 16.21875,51 L 17.125,50.125 L 20.75,46.5 L 158.90625,46.5 L 162.5625,50.125 L 163.4375,51 L 163.4375,47.46875 L 161.25,45.25 L 163.4375,43.0625 L 163.4375,39.5 L 162.5625,40.40625 L 158.90625,44.0625 L 158.90625,44 L 20.71875,44 L 17.125,40.40625 L 16.21875,39.5 z M 16.21875,43.0625 L 18.4375,45.25 L 16.21875,47.46875 L 14.03125,45.25 L 16.21875,43.0625 z" />
  <path
     id="rect5946"
     style="fill:#ff0000;fill-opacity:1;stroke:none;stroke-width:2.5;stroke-linecap:square;stroke-linejoin:miter;stroke-miterlimit:4;stroke-dasharray:none;stroke-dashoffset:0;stroke-opacity:1"
     d="M 163.4375,39.5 L 163.4375,43.0625 L 165.65625,45.25 L 163.4375,47.46875 L 163.4375,51 L 164.34375,50.125 L 167.96875,46.5 L 249.25,46.5 L 252.90625,50.125 L 253.78125,51 L 254.65625,50.125 L 258.625,46.15625 L 259.53125,45.25 L 258.625,44.375 L 254.65625,40.40625 L 253.78125,39.5 L 252.90625,40.40625 L 249.28125,44 L 167.9375,44 L 164.34375,40.40625 L 163.4375,39.5 z M 253.78125,43.0625 L 256,45.25 L 253.78125,47.46875 L 251.5625,45.25 L 253.78125,43.0625 z" />
  <path
     id="text5964"
     style="font-size:37.35390091px;font-style:normal;text-align:center;text-anchor:middle;fill:#0000ff;fill-opacity:1;stroke:none;stroke-width:1px;stroke-linecap:butt;stroke-linejoin:miter;stroke-opacity:1;font-family:Gill Sans MT"
     d="M 94.35541,18.07085 L 96.03342,16.86706 L 97.20073,17.15889 L 94.51956,28.72255 C 94.25204,29.87771 94.11829,30.77751 94.1183,31.42196 C 94.11829,31.90834 94.19732,32.26097 94.35541,32.47984 C 94.51347,32.69871 94.76274,32.80814 95.10322,32.80814 C 95.46799,32.80814 95.85709,32.65919 96.27053,32.36128 C 96.68393,32.06338 97.26759,31.49492 98.0215,30.65591 L 99.06113,31.67731 C 97.96676,32.84462 97.03352,33.67451 96.26141,34.16696 C 95.48927,34.65942 94.6533,34.90565 93.75352,34.90565 C 92.99961,34.90565 92.39772,34.65638 91.94783,34.15784 C 91.49792,33.65931 91.27297,32.99661 91.27298,32.16977 C 91.27297,31.501 91.4128,30.78967 91.69248,30.03578 L 91.45537,29.96282 C 90.28805,31.66515 89.18154,32.9115 88.13584,33.70186 C 87.09011,34.49223 85.9836,34.88741 84.8163,34.88741 C 83.47875,34.88741 82.44215,34.38279 81.70651,33.37356 C 80.97086,32.36432 80.60303,30.94774 80.60303,29.12382 C 80.60303,27.03239 81.01342,25.02304 81.83418,23.09575 C 82.65494,21.16849 83.78273,19.64855 85.21756,18.53595 C 86.65237,17.42337 88.25134,16.86708 90.01448,16.86706 C 90.80483,16.86708 91.54352,16.95523 92.23054,17.13153 C 92.91754,17.30786 93.62583,17.62096 94.35541,18.07085 L 94.35541,18.07085 z M 92.75036,23.50614 C 92.85978,23.00761 92.93274,22.57595 92.96923,22.21115 C 93.00569,21.84638 93.02393,21.4512 93.02395,21.0256 C 93.02393,20.08934 92.8233,19.40233 92.42205,18.96457 C 92.02078,18.52684 91.33985,18.30797 90.37926,18.30796 C 89.12682,18.30797 88.00207,18.81259 87.005,19.82181 C 86.00792,20.83106 85.22971,22.1838 84.67038,23.88004 C 84.11104,25.5763 83.83137,27.2695 83.83138,28.95966 C 83.83137,30.22426 84.00465,31.16965 84.3512,31.79586 C 84.69774,32.42208 85.27835,32.73519 86.09304,32.73518 C 86.89556,32.73519 87.68289,32.38864 88.45502,31.69555 C 89.22714,31.00246 90.02358,30.0145 90.84436,28.73167 C 91.66511,27.44886 92.24573,25.96844 92.58621,24.29042 L 92.75036,23.50614 z" />
  <path
     id="text5968"
     style="font-size:37.35390091px;font-style:normal;text-align:center;text-anchor:middle;fill:#ff0000;fill-opacity:1;stroke:none;stroke-width:1px;stroke-linecap:butt;stroke-linejoin:miter;stroke-opacity:1;font-family:Gill Sans MT"
     d="M 203.1911,33.7201 L 201.51309,34.90565 L 200.34578,34.61382 L 205.06974,13.76639 C 205.3494,12.52614 205.48924,11.62634 205.48924,11.06698 C 205.48924,10.55631 205.3342,10.1976 205.02414,9.99087 C 204.71407,9.78418 204.15777,9.66867 203.35525,9.64432 L 203.57412,8.69588 L 208.18865,8.53173 L 209.24652,8.53173 L 206.03642,21.29919 L 206.27353,21.37215 C 207.45299,19.79143 208.5595,18.64844 209.59307,17.94317 C 210.62661,17.23794 211.66017,16.88531 212.69374,16.8853 C 214.01911,16.88531 215.04962,17.38993 215.78529,18.39915 C 216.52092,19.40841 216.88874,20.83106 216.88876,22.66713 C 216.88874,24.67346 216.48444,26.64633 215.67585,28.58576 C 214.86723,30.5252 213.74552,32.06338 212.31071,33.20028 C 210.87588,34.3372 209.27083,34.90565 207.49556,34.90565 C 205.87834,34.90565 204.44352,34.51047 203.1911,33.7201 L 203.1911,33.7201 z M 204.79615,28.26657 C 204.61375,29.11774 204.52256,29.94459 204.52256,30.74711 C 204.52256,31.70771 204.73231,32.4008 205.15182,32.82638 C 205.57131,33.25196 206.26744,33.46475 207.24021,33.46475 C 207.73874,33.46475 208.21296,33.38268 208.66287,33.21852 C 209.11276,33.05437 209.57178,32.78382 210.03993,32.40688 C 210.50806,32.02994 210.95188,31.53444 211.37139,30.92038 C 211.79088,30.30633 212.17695,29.5494 212.52958,28.6496 C 212.8822,27.7498 213.15578,26.78616 213.35035,25.75868 C 213.54489,24.73121 213.64216,23.74934 213.64218,22.81305 C 213.64216,21.54847 213.46281,20.60003 213.10412,19.96773 C 212.7454,19.33545 212.17087,19.0193 211.38051,19.01929 C 210.79685,19.0193 210.22231,19.20473 209.65691,19.57558 C 209.09148,19.94646 208.46223,20.56051 207.76915,21.41774 C 207.07605,22.275 206.51063,23.15352 206.0729,24.05331 C 205.63515,24.95312 205.26429,26.10219 204.96031,27.50053 L 204.79615,28.26657 z" />
  <path
     id="text5972"
     style="font-size:37.35390091px;font-style:normal;text-align:center;text-anchor:middle;fill:#007e00;fill-opacity:1;stroke:none;stroke-width:1px;stroke-linecap:butt;stroke-linejoin:miter;stroke-opacity:1;font-family:Gill Sans MT"
     d="M 116.43788,98.1469 L 118.11589,96.94311 L 119.2832,97.23494 L 116.60203,108.7986 C 116.33451,109.95376 116.20075,110.85356 116.20077,111.49801 C 116.20075,111.98439 116.27979,112.33702 116.43788,112.55589 C 116.59593,112.77476 116.8452,112.88419 117.18568,112.88419 C 117.55045,112.88419 117.93956,112.73524 118.353,112.43733 C 118.7664,112.13943 119.35005,111.57097 120.10396,110.73196 L 121.1436,111.75336 C 120.04922,112.92067 119.11598,113.75056 118.34388,114.24301 C 117.57173,114.73547 116.73577,114.9817 115.83598,114.9817 C 115.08208,114.9817 114.48019,114.73243 114.0303,114.23389 C 113.58038,113.73536 113.35543,113.07266 113.35545,112.24582 C 113.35543,111.57705 113.49527,110.86572 113.77495,110.11183 L 113.53784,110.03887 C 112.37052,111.7412 111.26401,112.98755 110.2183,113.77791 C 109.17258,114.56828 108.06606,114.96346 106.89876,114.96346 C 105.56121,114.96346 104.52462,114.45884 103.78897,113.44961 C 103.05332,112.44037 102.6855,111.02379 102.6855,109.19987 C 102.6855,107.10844 103.09588,105.09909 103.91665,103.1718 C 104.73741,101.24454 105.8652,99.7246 107.30002,98.612 C 108.73484,97.49942 110.33381,96.94313 112.09694,96.94311 C 112.8873,96.94313 113.62598,97.03128 114.31301,97.20758 C 115,97.38391 115.70829,97.69701 116.43788,98.1469 L 116.43788,98.1469 z M 114.83282,103.58219 C 114.94225,103.08366 115.0152,102.652 115.0517,102.2872 C 115.08816,101.92243 115.1064,101.52725 115.10641,101.10165 C 115.1064,100.16539 114.90577,99.47838 114.50452,99.04062 C 114.10324,98.60289 113.42231,98.38402 112.46173,98.38401 C 111.20929,98.38402 110.08454,98.88864 109.08747,99.89786 C 108.09038,100.90711 107.31218,102.25985 106.75285,103.95609 C 106.19351,105.65235 105.91384,107.34555 105.91384,109.03571 C 105.91384,110.30031 106.08711,111.2457 106.43366,111.87191 C 106.7802,112.49813 107.36082,112.81124 108.17551,112.81123 C 108.97802,112.81124 109.76535,112.46469 110.53749,111.7716 C 111.3096,111.07851 112.10605,110.09055 112.92683,108.80772 C 113.74758,107.52491 114.32819,106.04449 114.66867,104.36647 L 114.83282,103.58219 z M 136.81109,105.22372 L 136.81109,115.72951 L 134.22112,115.72951 L 134.22112,105.22372 L 124.28074,105.22372 L 124.28074,102.7979 L 134.22112,102.7979 L 134.22112,92.2921 L 136.81109,92.2921 L 136.81109,102.7979 L 146.75147,102.7979 L 146.75147,105.22372 L 136.81109,105.22372 z M 154.02892,113.79615 L 152.35091,114.9817 L 151.1836,114.68987 L 155.90756,93.84244 C 156.18723,92.60219 156.32706,91.70239 156.32707,91.14303 C 156.32706,90.63236 156.17203,90.27365 155.86197,90.06692 C 155.55189,89.86023 154.9956,89.74472 154.19308,89.72037 L 154.41195,88.77193 L 159.02647,88.60778 L 160.08435,88.60778 L 156.87424,101.37524 L 157.11135,101.4482 C 158.29081,99.86748 159.39733,98.72449 160.43089,98.01922 C 161.46444,97.31399 162.49799,96.96136 163.53156,96.96135 C 164.85693,96.96136 165.88744,97.46598 166.62311,98.4752 C 167.35874,99.48445 167.72656,100.90711 167.72658,102.74318 C 167.72656,104.74951 167.32226,106.72238 166.51367,108.66181 C 165.70505,110.60125 164.58334,112.13943 163.14854,113.27633 C 161.71371,114.41325 160.10866,114.9817 158.33338,114.9817 C 156.71616,114.9817 155.28134,114.58652 154.02892,113.79615 L 154.02892,113.79615 z M 155.63398,108.34262 C 155.45158,109.19379 155.36038,110.02064 155.36039,110.82316 C 155.36038,111.78376 155.57013,112.47685 155.98964,112.90243 C 156.40914,113.32801 157.10527,113.5408 158.07803,113.5408 C 158.57656,113.5408 159.05078,113.45873 159.50069,113.29457 C 159.95058,113.13042 160.4096,112.85987 160.87775,112.48293 C 161.34588,112.10599 161.7897,111.61049 162.20922,110.99643 C 162.62871,110.38238 163.01477,109.62545 163.36741,108.72565 C 163.72002,107.82585 163.99361,106.86221 164.18817,105.83473 C 164.38271,104.80726 164.47999,103.82539 164.48,102.8891 C 164.47999,101.62452 164.30063,100.67608 163.94194,100.04378 C 163.58322,99.4115 163.00869,99.09535 162.21834,99.09534 C 161.63467,99.09535 161.06013,99.28078 160.49473,99.65163 C 159.9293,100.02251 159.30005,100.63656 158.60697,101.49379 C 157.91387,102.35105 157.34845,103.22957 156.91072,104.12936 C 156.47297,105.02917 156.10211,106.17824 155.79813,107.57658 L 155.63398,108.34262 z" />
  <path
     id="text5976"
     style="font-size:24.06299973px;font-style:normal;text-align:center;text-anchor:middle;fill:#007e00;fill-opacity:1;stroke:none;stroke-width:1px;stroke-linecap:butt;stroke-linejoin:miter;stroke-opacity:1;font-family:Gill Sans MT"
     d="M 31.99751,134.99613 L 33.07847,134.22066 L 33.83044,134.40866 L 32.10326,141.85785 C 31.93092,142.60199 31.84476,143.18163 31.84477,143.59678 C 31.84476,143.9101 31.89567,144.13726 31.99751,144.27825 C 32.09933,144.41925 32.25991,144.48975 32.47924,144.48975 C 32.71422,144.48975 32.96488,144.39379 33.23121,144.20188 C 33.49752,144.00998 33.87351,143.64378 34.35917,143.1033 L 35.02889,143.76128 C 34.3239,144.51325 33.72272,145.04785 33.22534,145.36508 C 32.72793,145.68232 32.18941,145.84094 31.60978,145.84094 C 31.12412,145.84094 30.73639,145.68036 30.44657,145.35921 C 30.15674,145.03806 30.01183,144.61116 30.01184,144.07851 C 30.01183,143.6477 30.10191,143.18947 30.28208,142.70382 L 30.12934,142.65682 C 29.37736,143.75344 28.66456,144.55633 27.99092,145.06547 C 27.31728,145.57462 26.60448,145.82919 25.85251,145.82919 C 24.99088,145.82919 24.32311,145.50412 23.84922,144.85398 C 23.37532,144.20384 23.13837,143.2913 23.13837,142.11634 C 23.13837,140.76907 23.40273,139.47466 23.93146,138.23313 C 24.46019,136.9916 25.1867,136.01248 26.111,135.29574 C 27.03529,134.57903 28.06533,134.22067 29.20113,134.22066 C 29.71026,134.22067 30.18612,134.27746 30.62869,134.39103 C 31.07125,134.50462 31.52752,134.70632 31.99751,134.99613 L 31.99751,134.99613 z M 30.96355,138.49749 C 31.03404,138.17634 31.08104,137.89827 31.10455,137.66327 C 31.12804,137.42829 31.13979,137.17372 31.1398,136.89955 C 31.13979,136.29642 31.01054,135.85386 30.75206,135.57186 C 30.49356,135.28988 30.05492,135.14889 29.43612,135.14888 C 28.62931,135.14889 27.90476,135.47396 27.26245,136.12409 C 26.62014,136.77424 26.11883,137.64566 25.75852,138.73835 C 25.39819,139.83107 25.21803,140.92181 25.21804,142.0106 C 25.21803,142.82523 25.32965,143.43425 25.5529,143.83765 C 25.77614,144.24105 26.15016,144.44275 26.67498,144.44275 C 27.19195,144.44275 27.69914,144.21951 28.19654,143.77302 C 28.69393,143.32655 29.20699,142.69011 29.73573,141.86373 C 30.26445,141.03735 30.63847,140.08368 30.85781,139.00272 L 30.96355,138.49749 z M 45.12173,139.55495 L 45.12173,146.32267 L 43.4533,146.32267 L 43.4533,139.55495 L 37.04981,139.55495 L 37.04981,137.99226 L 43.4533,137.99226 L 43.4533,131.22454 L 45.12173,131.22454 L 45.12173,137.99226 L 51.52522,137.99226 L 51.52522,139.55495 L 45.12173,139.55495 z M 56.21328,145.07722 L 55.13232,145.84094 L 54.38035,145.65295 L 57.42348,132.22324 C 57.60363,131.42429 57.69371,130.84465 57.69372,130.48432 C 57.69371,130.15534 57.59384,129.92427 57.3941,129.79109 C 57.19436,129.65795 56.836,129.58353 56.31902,129.56785 L 56.46002,128.95688 L 59.43264,128.85113 L 60.11412,128.85113 L 58.0462,137.0758 L 58.19894,137.1228 C 58.95874,136.10451 59.67155,135.36821 60.33736,134.91389 C 61.00316,134.45958 61.66896,134.23242 62.33478,134.23241 C 63.18857,134.23242 63.85241,134.55749 64.32632,135.20762 C 64.80021,135.85777 65.03715,136.77424 65.03717,137.95701 C 65.03715,139.24947 64.77671,140.52037 64.25582,141.76973 C 63.73492,143.0191 63.01232,144.00998 62.08804,144.74236 C 61.16373,145.47475 60.12978,145.84094 58.98616,145.84094 C 57.94437,145.84094 57.02007,145.58637 56.21328,145.07722 L 56.21328,145.07722 z M 57.24723,141.56411 C 57.12973,142.11243 57.07099,142.64507 57.07099,143.16205 C 57.07099,143.78086 57.20611,144.22734 57.47635,144.5015 C 57.74658,144.77565 58.19502,144.91273 58.82167,144.91273 C 59.14282,144.91273 59.4483,144.85986 59.73813,144.75411 C 60.02795,144.64837 60.32364,144.47408 60.62522,144.23126 C 60.92678,143.98843 61.21269,143.66924 61.48294,143.27367 C 61.75317,142.87811 62.00186,142.3905 62.22903,141.81085 C 62.45618,141.23122 62.63242,140.61045 62.75776,139.94856 C 62.88308,139.28667 62.94574,138.65416 62.94575,138.05101 C 62.94574,137.23638 62.83021,136.62541 62.59914,136.21808 C 62.36806,135.81078 61.99795,135.60712 61.48881,135.60711 C 61.11282,135.60712 60.74271,135.72657 60.37848,135.96547 C 60.01424,136.20438 59.60888,136.59995 59.16241,137.15217 C 58.71592,137.7044 58.35168,138.27034 58.0697,138.84998 C 57.78771,139.42962 57.5488,140.16984 57.35298,141.07063 L 57.24723,141.56411 z" />
  <text
     xml:space="preserve"
     id="text5980"
     style="font-size:24.06299973px;font-style:normal;text-align:center;text-anchor:middle;fill:#000000;fill-opacity:1;stroke:none;stroke-width:1px;stroke-linecap:butt;stroke-linejoin:miter;stroke-opacity:1;font-family:Gill Sans MT"
     y="145.65302"
     x="92.25499"><tspan
       id="tspan5982"
       style="font-weight:normal;fill:#000000;fill-opacity:1;font-family:Arial"
       y="145.65302"
       x="92.25499"></tspan></text>
  <text
     xml:space="preserve"
     style="font-size:17.28252792px;font-style:normal;text-align:center;text-anchor:middle;fill:#000000;fill-opacity:1;stroke:none;stroke-width:1px;stroke-linecap:butt;stroke-linejoin:miter;stroke-opacity:1;font-family:Gill Sans MT"
     y="148.57869"
     x="84.053482"
     id="text2497"
     transform="scale(1.0326901,0.9683447)"><tspan
       style="font-weight:normal;fill:#000000;fill-opacity:1;font-family:Arial"
       y="148.57869"
       x="84.053482"
       id="tspan2499">比</tspan></text>
  <path
     id="text5984"
     style="font-size:24.06299973px;font-style:normal;text-align:center;text-anchor:middle;fill:#0000ff;fill-opacity:1;stroke:none;stroke-width:1px;stroke-linecap:butt;stroke-linejoin:miter;stroke-opacity:1;font-family:Gill Sans MT"
     d="M 116.87558,135.15519 L 117.95654,134.37972 L 118.70851,134.56772 L 116.98133,142.01691 C 116.80899,142.76105 116.72283,143.34069 116.72284,143.75584 C 116.72283,144.06916 116.77374,144.29632 116.87558,144.43731 C 116.9774,144.57831 117.13798,144.64881 117.35731,144.64881 C 117.59229,144.64881 117.84295,144.55285 118.10928,144.36094 C 118.37559,144.16904 118.75158,143.80284 119.23724,143.26236 L 119.90696,143.92034 C 119.20197,144.67231 118.60079,145.20691 118.10341,145.52414 C 117.606,145.84138 117.06748,146 116.48785,146 C 116.00219,146 115.61446,145.83942 115.32464,145.51827 C 115.03481,145.19712 114.8899,144.77022 114.88991,144.23757 C 114.8899,143.80676 114.97998,143.34853 115.16015,142.86288 L 115.00741,142.81588 C 114.25543,143.9125 113.54263,144.71539 112.86899,145.22453 C 112.19535,145.73368 111.48255,145.98825 110.73058,145.98825 C 109.86895,145.98825 109.20118,145.66318 108.72729,145.01304 C 108.25339,144.3629 108.01644,143.45036 108.01644,142.2754 C 108.01644,140.92813 108.2808,139.63372 108.80953,138.39219 C 109.33826,137.15066 110.06477,136.17154 110.98907,135.4548 C 111.91336,134.73809 112.9434,134.37973 114.0792,134.37972 C 114.58833,134.37973 115.06419,134.43652 115.50676,134.55009 C 115.94932,134.66368 116.40559,134.86538 116.87558,135.15519 L 116.87558,135.15519 z M 115.84162,138.65655 C 115.91211,138.3354 115.95911,138.05733 115.98262,137.82233 C 116.00611,137.58735 116.01786,137.33278 116.01787,137.05861 C 116.01786,136.45548 115.88861,136.01292 115.63013,135.73092 C 115.37163,135.44894 114.93299,135.30795 114.31419,135.30794 C 113.50738,135.30795 112.78283,135.63302 112.14052,136.28315 C 111.49821,136.9333 110.9969,137.80472 110.63659,138.89741 C 110.27626,139.99013 110.0961,141.08087 110.09611,142.16966 C 110.0961,142.98429 110.20772,143.59331 110.43097,143.99671 C 110.65421,144.40011 111.02823,144.60181 111.55305,144.60181 C 112.07002,144.60181 112.57721,144.37857 113.07461,143.93208 C 113.572,143.48561 114.08506,142.84917 114.6138,142.02279 C 115.14252,141.19641 115.51654,140.24274 115.73588,139.16178 L 115.84162,138.65655 z" />
  <text
     xml:space="preserve"
     id="text5988"
     style="font-size:24.06299973px;font-style:normal;text-align:center;text-anchor:middle;fill:#000000;fill-opacity:1;stroke:none;stroke-width:1px;stroke-linecap:butt;stroke-linejoin:miter;stroke-opacity:1;font-family:Gill Sans MT"
     y="145.65302"
     x="150.65001"><tspan
       id="tspan5990"
       style="font-weight:normal;fill:#000000;fill-opacity:1;font-family:Arial"
       y="145.65302"
       x="150.65001"></tspan></text>
  <text
     xml:space="preserve"
     style="font-size:16.58893394px;font-style:normal;text-align:center;text-anchor:middle;fill:#000000;fill-opacity:1;stroke:none;stroke-width:1px;stroke-linecap:butt;stroke-linejoin:miter;stroke-opacity:1;font-family:Gill Sans MT"
     y="144.37961"
     x="149.27921"
     id="text2493"
     transform="scale(1.0064331,0.993608)"><tspan
       style="font-weight:normal;fill:#000000;fill-opacity:1;font-family:Arial"
       y="144.37961"
       x="149.27921"
       id="tspan2495">等于</tspan></text>
  <path
     id="text5992"
     style="font-size:24.06299973px;font-style:normal;text-align:center;text-anchor:middle;fill:#0000ff;fill-opacity:1;stroke:none;stroke-width:1px;stroke-linecap:butt;stroke-linejoin:miter;stroke-opacity:1;font-family:Gill Sans MT"
     d="M 186.72201,134.99613 L 187.80297,134.22066 L 188.55494,134.40866 L 186.82776,141.85785 C 186.65542,142.60199 186.56926,143.18163 186.56927,143.59678 C 186.56926,143.9101 186.62017,144.13726 186.72201,144.27825 C 186.82383,144.41925 186.98441,144.48975 187.20374,144.48975 C 187.43872,144.48975 187.68938,144.39379 187.95571,144.20188 C 188.22202,144.00998 188.59801,143.64378 189.08367,143.1033 L 189.75339,143.76128 C 189.04841,144.51325 188.44722,145.04785 187.94984,145.36508 C 187.45243,145.68232 186.91391,145.84094 186.33428,145.84094 C 185.84862,145.84094 185.46089,145.68036 185.17108,145.35921 C 184.88125,145.03806 184.73634,144.61116 184.73634,144.07851 C 184.73634,143.6477 184.82641,143.18947 185.00658,142.70382 L 184.85384,142.65682 C 184.10186,143.75344 183.38906,144.55633 182.71543,145.06547 C 182.04178,145.57462 181.32898,145.82919 180.57701,145.82919 C 179.71538,145.82919 179.04761,145.50412 178.57372,144.85398 C 178.09982,144.20384 177.86287,143.2913 177.86287,142.11634 C 177.86287,140.76907 178.12724,139.47466 178.65597,138.23313 C 179.18469,136.9916 179.9112,136.01248 180.8355,135.29574 C 181.75979,134.57903 182.78983,134.22067 183.92563,134.22066 C 184.43476,134.22067 184.91062,134.27746 185.35319,134.39103 C 185.79575,134.50462 186.25202,134.70632 186.72201,134.99613 L 186.72201,134.99613 z M 185.68805,138.49749 C 185.75854,138.17634 185.80554,137.89827 185.82905,137.66327 C 185.85254,137.42829 185.86429,137.17372 185.8643,136.89955 C 185.86429,136.29642 185.73504,135.85386 185.47656,135.57186 C 185.21806,135.28988 184.77942,135.14889 184.16062,135.14888 C 183.35381,135.14889 182.62926,135.47396 181.98696,136.12409 C 181.34464,136.77424 180.84333,137.64566 180.48302,138.73835 C 180.12269,139.83107 179.94253,140.92181 179.94254,142.0106 C 179.94253,142.82523 180.05416,143.43425 180.2774,143.83765 C 180.50064,144.24105 180.87466,144.44275 181.39948,144.44275 C 181.91645,144.44275 182.42364,144.21951 182.92104,143.77302 C 183.41843,143.32655 183.93149,142.69011 184.46023,141.86373 C 184.98895,141.03735 185.36298,140.08368 185.58231,139.00272 L 185.68805,138.49749 z" />
  <path
     id="text5996"
     style="font-size:24.06299973px;font-style:normal;text-align:center;text-anchor:middle;fill:#ff0000;fill-opacity:1;stroke:none;stroke-width:1px;stroke-linecap:butt;stroke-linejoin:miter;stroke-opacity:1;font-family:Gill Sans MT"
     d="M 238.03687,144.8719 L 236.95591,145.63562 L 236.20394,145.44763 L 239.24707,132.01792 C 239.42722,131.21897 239.5173,130.63933 239.5173,130.27899 C 239.5173,129.95002 239.41743,129.71895 239.21769,129.58577 C 239.01795,129.45263 238.65959,129.37821 238.14261,129.36253 L 238.28361,128.75156 L 241.25623,128.64581 L 241.93771,128.64581 L 239.86979,136.87048 L 240.02253,136.91747 C 240.78233,135.89919 241.49513,135.16289 242.16095,134.70856 C 242.82675,134.25426 243.49255,134.0271 244.15837,134.02709 C 245.01215,134.0271 245.676,134.35217 246.14991,135.0023 C 246.6238,135.65245 246.86074,136.56891 246.86076,137.75169 C 246.86074,139.04414 246.6003,140.31505 246.07941,141.56441 C 245.55851,142.81378 244.83591,143.80465 243.91163,144.53704 C 242.98732,145.26943 241.95337,145.63562 240.80975,145.63562 C 239.76796,145.63562 238.84366,145.38105 238.03687,144.8719 L 238.03687,144.8719 z M 239.07082,141.35879 C 238.95332,141.90711 238.89458,142.43975 238.89458,142.95673 C 238.89458,143.57554 239.0297,144.02202 239.29994,144.29617 C 239.57017,144.57033 240.01861,144.70741 240.64526,144.70741 C 240.96641,144.70741 241.27189,144.65453 241.56172,144.54879 C 241.85154,144.44304 242.14723,144.26876 242.44881,144.02593 C 242.75037,143.78311 243.03628,143.46392 243.30653,143.06835 C 243.57676,142.67278 243.82545,142.18518 244.05262,141.60553 C 244.27977,141.02589 244.45601,140.40513 244.58135,139.74323 C 244.70667,139.08135 244.76933,138.44883 244.76934,137.84569 C 244.76933,137.03106 244.65379,136.42009 244.42273,136.01276 C 244.19165,135.60545 243.82154,135.40179 243.3124,135.40178 C 242.93641,135.40179 242.5663,135.52125 242.20207,135.76015 C 241.83783,135.99906 241.43247,136.39463 240.986,136.94685 C 240.53951,137.49908 240.17527,138.06502 239.89329,138.64465 C 239.6113,139.2243 239.37239,139.96452 239.17657,140.86531 L 239.07082,141.35879 z" />
  <text
     xml:space="preserve"
     style="font-size:17.28252792px;font-style:normal;text-align:center;text-anchor:middle;fill:#000000;fill-opacity:1;stroke:none;stroke-width:1px;stroke-linecap:butt;stroke-linejoin:miter;stroke-opacity:1;font-family:Gill Sans MT"
     y="148.57869"
     x="206.75647"
     id="text2501"
     transform="scale(1.0326901,0.9683447)"><tspan
       style="font-weight:normal;fill:#000000;fill-opacity:1;font-family:Arial"
       y="148.57869"
       x="206.75647"
       id="tspan2503">比</tspan></text>
</svg>
